<svg width="659" height="189" viewBox="0 0 367 49" fill="none" xmlns="http://www.w3.org/2000/svg">
    <path d="M35.928 27.12C35.928 28.2293 35.864 29.4027 35.736 30.64H7.70395C7.91729 34.096 9.09062 36.8053 11.224 38.768C13.4 40.688 16.024 41.648 19.096 41.648C21.6133 41.648 23.704 41.072 25.368 39.92C27.0746 38.7253 28.2693 37.1467 28.952 35.184H35.224C34.2853 38.5547 32.408 41.3067 29.592 43.44C26.776 45.5307 23.2773 46.576 19.096 46.576C15.768 46.576 12.7813 45.8293 10.136 44.336C7.53329 42.8427 5.48529 40.7307 3.99195 38C2.49862 35.2267 1.75195 32.0267 1.75195 28.4C1.75195 24.7733 2.47729 21.5947 3.92795 18.864C5.37862 16.1333 7.40529 14.0427 10.008 12.592C12.6533 11.0987 15.6826 10.352 19.096 10.352C22.424 10.352 25.368 11.0773 27.928 12.528C30.488 13.9787 32.4506 15.984 33.816 18.544C35.224 21.0613 35.928 23.92 35.928 27.12ZM29.912 25.904C29.912 23.6853 29.4213 21.7867 28.44 20.208C27.4586 18.5867 26.1146 17.3707 24.408 16.56C22.744 15.7067 20.888 15.28 18.84 15.28C15.896 15.28 13.3786 16.2187 11.288 18.096C9.23995 19.9733 8.06662 22.576 7.76795 25.904H29.912Z" stroke="#335CC2" stroke-width="3"/>
    <path d="M60.7035 10.288C64.9701 10.288 68.4261 11.5893 71.0715 14.192C73.7168 16.752 75.0395 20.464 75.0395 25.328V46H69.2795V26.16C69.2795 22.6613 68.4048 19.9947 66.6555 18.16C64.9061 16.2827 62.5168 15.344 59.4875 15.344C56.4155 15.344 53.9621 16.304 52.1275 18.224C50.3355 20.144 49.4395 22.9387 49.4395 26.608V46H43.6155V10.928H49.4395V15.92C50.5915 14.128 52.1488 12.7413 54.1115 11.76C56.1168 10.7787 58.3141 10.288 60.7035 10.288Z" stroke="#335CC2" stroke-width="3"/>
    <path d="M96.969 46.576C94.281 46.576 91.8703 46.128 89.737 45.232C87.6036 44.2933 85.9183 43.0133 84.681 41.392C83.4436 39.728 82.761 37.8293 82.633 35.696H88.649C88.8196 37.4453 89.6303 38.8747 91.081 39.984C92.5743 41.0933 94.5156 41.648 96.905 41.648C99.1236 41.648 100.873 41.1573 102.153 40.176C103.433 39.1947 104.073 37.9573 104.073 36.464C104.073 34.928 103.39 33.7973 102.025 33.072C100.66 32.304 98.5476 31.5573 95.689 30.832C93.0863 30.1493 90.953 29.4667 89.289 28.784C87.6676 28.0587 86.2596 27.0133 85.065 25.648C83.913 24.24 83.337 22.4053 83.337 20.144C83.337 18.352 83.8703 16.7093 84.937 15.216C86.0036 13.7227 87.5183 12.5493 89.481 11.696C91.4436 10.8 93.6836 10.352 96.201 10.352C100.084 10.352 103.22 11.3333 105.609 13.296C107.998 15.2587 109.278 17.9467 109.449 21.36H103.625C103.497 19.5253 102.75 18.0533 101.385 16.944C100.062 15.8347 98.2703 15.28 96.009 15.28C93.9183 15.28 92.2543 15.728 91.017 16.624C89.7796 17.52 89.161 18.6933 89.161 20.144C89.161 21.296 89.5236 22.256 90.249 23.024C91.017 23.7493 91.9556 24.3467 93.065 24.816C94.217 25.2427 95.7956 25.7333 97.801 26.288C100.318 26.9707 102.366 27.6533 103.945 28.336C105.524 28.976 106.868 29.9573 107.977 31.28C109.129 32.6027 109.726 34.3307 109.769 36.464C109.769 38.384 109.236 40.112 108.169 41.648C107.102 43.184 105.588 44.4 103.625 45.296C101.705 46.1493 99.4863 46.576 96.969 46.576Z" stroke="#335CC2" stroke-width="3"/>
    <path d="M125.094 15.728V36.4C125.094 38.1067 125.457 39.3227 126.182 40.048C126.908 40.7307 128.166 41.072 129.958 41.072H134.246V46H128.998C125.756 46 123.324 45.2533 121.702 43.76C120.081 42.2667 119.27 39.8133 119.27 36.4V15.728H114.726V10.928H119.27V2.09601H125.094V10.928H134.246V15.728H125.094Z" stroke="#335CC2" stroke-width="3"/>
    <path d="M139.127 28.336C139.127 24.752 139.852 21.616 141.303 18.928C142.754 16.1973 144.738 14.0853 147.255 12.592C149.815 11.0987 152.652 10.352 155.767 10.352C158.839 10.352 161.506 11.0133 163.767 12.336C166.028 13.6587 167.714 15.3227 168.823 17.328V10.928H174.711V46H168.823V39.472C167.671 41.52 165.943 43.2267 163.639 44.592C161.378 45.9147 158.732 46.576 155.703 46.576C152.588 46.576 149.772 45.808 147.255 44.272C144.738 42.736 142.754 40.5813 141.303 37.808C139.852 35.0347 139.127 31.8773 139.127 28.336ZM168.823 28.4C168.823 25.7547 168.29 23.4507 167.223 21.488C166.156 19.5253 164.706 18.032 162.871 17.008C161.079 15.9413 159.095 15.408 156.919 15.408C154.743 15.408 152.759 15.92 150.967 16.944C149.175 17.968 147.746 19.4613 146.679 21.424C145.612 23.3867 145.079 25.6907 145.079 28.336C145.079 31.024 145.612 33.3707 146.679 35.376C147.746 37.3387 149.175 38.8533 150.967 39.92C152.759 40.944 154.743 41.456 156.919 41.456C159.095 41.456 161.079 40.944 162.871 39.92C164.706 38.8533 166.156 37.3387 167.223 35.376C168.29 33.3707 168.823 31.0453 168.823 28.4Z" stroke="#335CC2" stroke-width="3"/>
    <path d="M201.641 10.288C205.908 10.288 209.364 11.5893 212.009 14.192C214.654 16.752 215.977 20.464 215.977 25.328V46H210.217V26.16C210.217 22.6613 209.342 19.9947 207.593 18.16C205.844 16.2827 203.454 15.344 200.425 15.344C197.353 15.344 194.9 16.304 193.065 18.224C191.273 20.144 190.377 22.9387 190.377 26.608V46H184.553V10.928H190.377V15.92C191.529 14.128 193.086 12.7413 195.049 11.76C197.054 10.7787 199.252 10.288 201.641 10.288Z" stroke="#335CC2" stroke-width="3"/>
    <path d="M232.594 15.728V36.4C232.594 38.1067 232.957 39.3227 233.682 40.048C234.408 40.7307 235.666 41.072 237.458 41.072H241.746V46H236.498C233.256 46 230.824 45.2533 229.202 43.76C227.581 42.2667 226.77 39.8133 226.77 36.4V15.728H222.226V10.928H226.77V2.09601H232.594V10.928H241.746V15.728H232.594Z" stroke="#335CC2" stroke-width="3"/>
    <path d="M246.627 28.336C246.627 24.752 247.352 21.616 248.803 18.928C250.254 16.1973 252.238 14.0853 254.755 12.592C257.315 11.0987 260.152 10.352 263.267 10.352C266.339 10.352 269.006 11.0133 271.267 12.336C273.528 13.6587 275.214 15.3227 276.323 17.328V10.928H282.211V46H276.323V39.472C275.171 41.52 273.443 43.2267 271.139 44.592C268.878 45.9147 266.232 46.576 263.203 46.576C260.088 46.576 257.272 45.808 254.755 44.272C252.238 42.736 250.254 40.5813 248.803 37.808C247.352 35.0347 246.627 31.8773 246.627 28.336ZM276.323 28.4C276.323 25.7547 275.79 23.4507 274.723 21.488C273.656 19.5253 272.206 18.032 270.371 17.008C268.579 15.9413 266.595 15.408 264.419 15.408C262.243 15.408 260.259 15.92 258.467 16.944C256.675 17.968 255.246 19.4613 254.179 21.424C253.112 23.3867 252.579 25.6907 252.579 28.336C252.579 31.024 253.112 33.3707 254.179 35.376C255.246 37.3387 256.675 38.8533 258.467 39.92C260.259 40.944 262.243 41.456 264.419 41.456C266.595 41.456 268.579 40.944 270.371 39.92C272.206 38.8533 273.656 37.3387 274.723 35.376C275.79 33.3707 276.323 31.0453 276.323 28.4Z" stroke="#335CC2" stroke-width="3"/>
    <path d="M309.141 10.288C313.408 10.288 316.864 11.5893 319.509 14.192C322.154 16.752 323.477 20.464 323.477 25.328V46H317.717V26.16C317.717 22.6613 316.842 19.9947 315.093 18.16C313.344 16.2827 310.954 15.344 307.925 15.344C304.853 15.344 302.4 16.304 300.565 18.224C298.773 20.144 297.877 22.9387 297.877 26.608V46H292.053V10.928H297.877V15.92C299.029 14.128 300.586 12.7413 302.549 11.76C304.554 10.7787 306.752 10.288 309.141 10.288Z" stroke="#335CC2" stroke-width="3"/>
    <path d="M364.99 27.12C364.99 28.2293 364.926 29.4027 364.798 30.64H336.766C336.98 34.096 338.153 36.8053 340.286 38.768C342.462 40.688 345.086 41.648 348.158 41.648C350.676 41.648 352.766 41.072 354.43 39.92C356.137 38.7253 357.332 37.1467 358.014 35.184H364.286C363.348 38.5547 361.47 41.3067 358.654 43.44C355.838 45.5307 352.34 46.576 348.158 46.576C344.83 46.576 341.844 45.8293 339.198 44.336C336.596 42.8427 334.548 40.7307 333.054 38C331.561 35.2267 330.814 32.0267 330.814 28.4C330.814 24.7733 331.54 21.5947 332.99 18.864C334.441 16.1333 336.468 14.0427 339.07 12.592C341.716 11.0987 344.745 10.352 348.158 10.352C351.486 10.352 354.43 11.0773 356.99 12.528C359.55 13.9787 361.513 15.984 362.878 18.544C364.286 21.0613 364.99 23.92 364.99 27.12ZM358.974 25.904C358.974 23.6853 358.484 21.7867 357.502 20.208C356.521 18.5867 355.177 17.3707 353.47 16.56C351.806 15.7067 349.95 15.28 347.902 15.28C344.958 15.28 342.441 16.2187 340.35 18.096C338.302 19.9733 337.129 22.576 336.83 25.904H358.974Z" stroke="#335CC2" stroke-width="3"/>
</svg>
